<svg width="32" height="32" viewBox="0 0 32 32" fill="none" xmlns="http://www.w3.org/2000/svg">
<path d="M26 16C26 10.478 21.522 6 16 6C10.478 6 6 10.478 6 16C6 21.522 10.478 26 16 26C16.0587 26 16.1172 25.9988 16.1758 25.9977V18.2131H14.0273V15.7093H16.1758V13.8668C16.1758 11.73 17.4803 10.567 19.3864 10.567C20.2992 10.567 21.0838 10.635 21.3125 10.6654V12.8987H19.9981C18.9611 12.8987 18.7603 13.3915 18.7603 14.1146V15.7093H21.2399L20.9167 18.2131H18.7603V25.6136C22.9402 24.4154 26 20.5645 26 16Z" fill="white"/>
</svg>
