<svg width="32" height="32" viewBox="0 0 32 32" fill="none" xmlns="http://www.w3.org/2000/svg">
<path d="M16 6C10.4771 6 6 10.4771 6 16C6 21.5229 10.4771 26 16 26C21.5229 26 26 21.5229 26 16C26 10.4771 21.5229 6 16 6ZM19.8458 17.2823C19.8458 17.2823 20.7302 18.1552 20.9479 18.5604C20.9542 18.5688 20.9573 18.5771 20.9594 18.5812C21.0479 18.7302 21.0688 18.8458 21.025 18.9323C20.9521 19.076 20.7021 19.1469 20.6167 19.1531H19.0542C18.9458 19.1531 18.7188 19.125 18.4437 18.9354C18.2323 18.7875 18.024 18.5448 17.8208 18.3083C17.5177 17.9562 17.2552 17.6521 16.9906 17.6521C16.957 17.652 16.9236 17.6573 16.8917 17.6677C16.6917 17.7323 16.4354 18.0177 16.4354 18.7781C16.4354 19.0156 16.2479 19.1521 16.1156 19.1521H15.4C15.1562 19.1521 13.8865 19.0667 12.7615 17.8802C11.3844 16.4271 10.1448 13.5125 10.1344 13.4854C10.0562 13.2969 10.2177 13.1958 10.3937 13.1958H11.9719C12.1823 13.1958 12.251 13.324 12.299 13.4375C12.3552 13.5698 12.5615 14.0958 12.9 14.6875C13.449 15.6521 13.7854 16.0437 14.0552 16.0437C14.1058 16.0432 14.1555 16.0303 14.2 16.0062C14.5521 15.8104 14.4865 14.5552 14.4708 14.2948C14.4708 14.2458 14.4698 13.7333 14.2896 13.4875C14.1604 13.3094 13.9406 13.2417 13.8073 13.2167C13.8613 13.1422 13.9324 13.0818 14.0146 13.0406C14.2562 12.9198 14.6917 12.9021 15.124 12.9021H15.3646C15.8333 12.9083 15.9542 12.9385 16.124 12.9812C16.4677 13.0635 16.475 13.2854 16.4448 14.0448C16.4354 14.2604 16.426 14.5042 16.426 14.7917C16.426 14.8542 16.4229 14.9208 16.4229 14.9917C16.4125 15.3781 16.4 15.8167 16.6729 15.9969C16.7085 16.0192 16.7497 16.0311 16.7917 16.0312C16.8865 16.0312 17.1719 16.0312 17.9448 14.7052C18.1832 14.2784 18.3903 13.8349 18.5646 13.3781C18.5802 13.351 18.626 13.2677 18.6802 13.2354C18.7202 13.215 18.7645 13.2047 18.8094 13.2052H20.6646C20.8667 13.2052 21.0052 13.2354 21.0312 13.3135C21.0771 13.4375 21.0229 13.8156 20.176 14.9625L19.7979 15.4615C19.0302 16.4677 19.0302 16.5188 19.8458 17.2823Z" fill="white"/>
</svg>
